 <svg width="77" height="80" viewBox="0 0 77 80" fill="none" xmlns="http://www.w3.org/2000/svg">
<path d="M2.49286 38.777C2.49286 38.471 2.74087 38.223 3.04682 38.223H49.5792C49.8851 38.223 50.1332 38.471 50.1332 38.777V48.7482C50.1332 49.0541 49.8851 49.3022 49.5792 49.3022H5.26265C3.73294 49.3022 2.49286 48.0621 2.49286 46.5324V38.777Z" fill="url(#paint0_linear_12_18)"/>
<path d="M70.9038 11.7211C72.2542 11.7213 73.4077 12.6953 73.6341 14.0267L76.0844 28.4405C76.1418 28.778 75.8823 29.0862 75.54 29.0873L52.1465 29.1596C51.8405 29.1605 51.5917 28.9133 51.5908 28.6073L51.5403 12.2749C51.5394 11.9683 51.7877 11.7192 52.0943 11.7192L70.9038 11.7211Z" fill="url(#paint1_linear_12_18)"/>
<path d="M5.21995 76.875V67.1526H7.27552V75.1802H11.4436V76.875H5.21995ZM16.0615 77.0174C15.3241 77.0174 14.6864 76.8608 14.1484 76.5475C13.6135 76.231 13.2005 75.7911 12.9093 75.2277C12.6182 74.6612 12.4726 74.0045 12.4726 73.2576C12.4726 72.5044 12.6182 71.8461 12.9093 71.2827C13.2005 70.7162 13.6135 70.2763 14.1484 69.963C14.6864 69.6465 15.3241 69.4883 16.0615 69.4883C16.7989 69.4883 17.4351 69.6465 17.9699 69.963C18.5079 70.2763 18.9225 70.7162 19.2137 71.2827C19.5049 71.8461 19.6504 72.5044 19.6504 73.2576C19.6504 74.0045 19.5049 74.6612 19.2137 75.2277C18.9225 75.7911 18.5079 76.231 17.9699 76.5475C17.4351 76.8608 16.7989 77.0174 16.0615 77.0174ZM16.071 75.4508C16.4065 75.4508 16.6866 75.3559 16.9113 75.166C17.136 74.9729 17.3053 74.7103 17.4192 74.378C17.5363 74.0456 17.5949 73.6674 17.5949 73.2434C17.5949 72.8193 17.5363 72.4411 17.4192 72.1088C17.3053 71.7765 17.136 71.5138 16.9113 71.3207C16.6866 71.1277 16.4065 71.0311 16.071 71.0311C15.7324 71.0311 15.4475 71.1277 15.2165 71.3207C14.9886 71.5138 14.8161 71.7765 14.6991 72.1088C14.5851 72.4411 14.5281 72.8193 14.5281 73.2434C14.5281 73.6674 14.5851 74.0456 14.6991 74.378C14.8161 74.7103 14.9886 74.9729 15.2165 75.166C15.4475 75.3559 15.7324 75.4508 16.071 75.4508ZM23.0447 77.0127C22.5795 77.0127 22.1649 76.932 21.801 76.7706C21.437 76.606 21.149 76.3639 20.937 76.0442C20.7281 75.7214 20.6236 75.3195 20.6236 74.8384C20.6236 74.4333 20.698 74.0931 20.8468 73.8178C20.9955 73.5424 21.1981 73.3209 21.4544 73.1532C21.7108 72.9854 22.0019 72.8588 22.3279 72.7734C22.657 72.6879 23.002 72.6278 23.3628 72.593C23.7869 72.5487 24.1287 72.5075 24.3882 72.4696C24.6477 72.4284 24.836 72.3683 24.9531 72.2892C25.0702 72.21 25.1288 72.0929 25.1288 71.9379V71.9094C25.1288 71.6087 25.0338 71.3761 24.844 71.2115C24.6572 71.047 24.3914 70.9647 24.0464 70.9647C23.6825 70.9647 23.3929 71.0454 23.1777 71.2068C22.9625 71.365 22.82 71.5644 22.7504 71.8049L20.88 71.653C20.9749 71.2099 21.1617 70.827 21.4402 70.5042C21.7187 70.1782 22.0779 69.9282 22.5178 69.7541C22.9609 69.5769 23.4736 69.4883 24.0559 69.4883C24.461 69.4883 24.8487 69.5357 25.219 69.6307C25.5924 69.7256 25.9232 69.8728 26.2112 70.0722C26.5023 70.2716 26.7318 70.5279 26.8995 70.8412C27.0673 71.1514 27.1511 71.5233 27.1511 71.9568V76.875H25.2332V75.8638H25.1763C25.0592 76.0917 24.9025 76.2927 24.7063 76.4667C24.5101 76.6376 24.2743 76.7722 23.9989 76.8703C23.7236 76.9652 23.4055 77.0127 23.0447 77.0127ZM23.6239 75.617C23.9214 75.617 24.1841 75.5584 24.412 75.4413C24.6398 75.3211 24.8186 75.1597 24.9484 74.9571C25.0782 74.7546 25.143 74.5251 25.143 74.2688V73.495C25.0797 73.5361 24.9927 73.5741 24.8819 73.6089C24.7743 73.6405 24.6525 73.6706 24.5164 73.6991C24.3803 73.7244 24.2442 73.7481 24.1081 73.7703C23.972 73.7893 23.8486 73.8067 23.7378 73.8225C23.5005 73.8573 23.2932 73.9127 23.1159 73.9887C22.9387 74.0646 22.801 74.1675 22.7029 74.2972C22.6048 74.4238 22.5558 74.5821 22.5558 74.772C22.5558 75.0473 22.6555 75.2578 22.8548 75.4034C23.0574 75.5458 23.3138 75.617 23.6239 75.617ZM31.407 76.9937C30.8532 76.9937 30.3516 76.8513 29.9022 76.5664C29.4559 76.2784 29.1015 75.8559 28.8388 75.2989C28.5793 74.7387 28.4495 74.052 28.4495 73.2386C28.4495 72.4031 28.584 71.7084 28.853 71.1546C29.122 70.5975 29.4797 70.1814 29.9259 69.906C30.3753 69.6275 30.8674 69.4883 31.4023 69.4883C31.8106 69.4883 32.1508 69.5579 32.423 69.6971C32.6983 69.8332 32.9198 70.0041 33.0876 70.2099C33.2585 70.4124 33.3882 70.6118 33.4769 70.808H33.5386V67.1526H35.5562V76.875H33.5623V75.7072H33.4769C33.3819 75.9097 33.2474 76.1107 33.0733 76.3101C32.9024 76.5063 32.6793 76.6693 32.404 76.7991C32.1318 76.9288 31.7995 76.9937 31.407 76.9937ZM32.0479 75.3844C32.3739 75.3844 32.6492 75.2958 32.8739 75.1185C33.1018 74.9381 33.2759 74.6865 33.3961 74.3637C33.5196 74.0409 33.5813 73.6627 33.5813 73.2291C33.5813 72.7955 33.5212 72.4189 33.4009 72.0993C33.2806 71.7796 33.1066 71.5328 32.8787 71.3587C32.6508 71.1846 32.3739 71.0976 32.0479 71.0976C31.7156 71.0976 31.4355 71.1878 31.2077 71.3682C30.9798 71.5486 30.8073 71.7986 30.6902 72.1183C30.5731 72.4379 30.5146 72.8082 30.5146 73.2291C30.5146 73.6532 30.5731 74.0282 30.6902 74.3542C30.8105 74.677 30.983 74.9302 31.2077 75.1138C31.4355 75.2942 31.7156 75.3844 32.0479 75.3844Z" fill="#274AD8"/>
<path d="M45.3889 67.1526V76.875H43.6134L39.3836 70.7558H39.3124V76.875H37.2569V67.1526H39.0608L43.2574 73.2671H43.3429V67.1526H45.3889ZM50.3724 77.0174C49.6223 77.0174 48.9767 76.8655 48.4355 76.5617C47.8975 76.2547 47.4829 75.8211 47.1917 75.2609C46.9005 74.6976 46.7549 74.0314 46.7549 73.2623C46.7549 72.5123 46.9005 71.854 47.1917 71.2875C47.4829 70.721 47.8927 70.2795 48.4212 69.963C48.9529 69.6465 49.5764 69.4883 50.2917 69.4883C50.7727 69.4883 51.2205 69.5658 51.6351 69.7209C52.0529 69.8728 52.4169 70.1022 52.727 70.4092C53.0403 70.7162 53.284 71.1023 53.4581 71.5676C53.6322 72.0296 53.7192 72.5708 53.7192 73.1911V73.7466H47.562V72.4933H51.8155C51.8155 72.2021 51.7522 71.9442 51.6256 71.7195C51.499 71.4948 51.3234 71.3191 51.0987 71.1925C50.8772 71.0628 50.6192 70.9979 50.3249 70.9979C50.0179 70.9979 49.7457 71.0691 49.5084 71.2115C49.2742 71.3508 49.0906 71.5391 48.9577 71.7764C48.8248 72.0106 48.7567 72.2717 48.7535 72.5597V73.7513C48.7535 74.1121 48.82 74.4238 48.9529 74.6865C49.089 74.9492 49.2805 75.1518 49.5274 75.2942C49.7742 75.4366 50.067 75.5078 50.4056 75.5078C50.6303 75.5078 50.836 75.4762 51.0227 75.4129C51.2095 75.3496 51.3693 75.2546 51.5022 75.128C51.6351 75.0014 51.7364 74.8463 51.806 74.6628L53.6765 74.7862C53.5815 75.2356 53.3869 75.6281 53.0925 75.9635C52.8014 76.2958 52.4248 76.5554 51.9627 76.7421C51.5038 76.9256 50.9737 77.0174 50.3724 77.0174ZM55.0389 79.6094V69.5832H57.0328V70.808H57.123C57.2116 70.6118 57.3398 70.4124 57.5075 70.2099C57.6784 70.0041 57.8999 69.8332 58.1721 69.6971C58.4475 69.5579 58.7893 69.4883 59.1975 69.4883C59.7292 69.4883 60.2198 69.6275 60.6692 69.906C61.1186 70.1814 61.4778 70.5975 61.7468 71.1546C62.0158 71.7084 62.1503 72.4031 62.1503 73.2386C62.1503 74.052 62.019 74.7387 61.7563 75.2989C61.4968 75.8559 61.1423 76.2784 60.6929 76.5664C60.2467 76.8513 59.7466 76.9937 59.1928 76.9937C58.8003 76.9937 58.4664 76.9288 58.1911 76.7991C57.9189 76.6693 57.6958 76.5063 57.5217 76.3101C57.3477 76.1107 57.2148 75.9097 57.123 75.7072H57.0613V79.6094H55.0389ZM57.0185 73.2291C57.0185 73.6627 57.0787 74.0409 57.1989 74.3637C57.3192 74.6865 57.4933 74.9381 57.7211 75.1185C57.949 75.2958 58.2259 75.3844 58.5519 75.3844C58.881 75.3844 59.1595 75.2942 59.3874 75.1138C59.6153 74.9302 59.7878 74.677 59.9049 74.3542C60.0251 74.0282 60.0853 73.6532 60.0853 73.2291C60.0853 72.8082 60.0267 72.4379 59.9096 72.1183C59.7925 71.7986 59.62 71.5486 59.3922 71.3682C59.1643 71.1878 58.8842 71.0976 58.5519 71.0976C58.2228 71.0976 57.9442 71.1846 57.7164 71.3587C57.4917 71.5328 57.3192 71.7796 57.1989 72.0993C57.0787 72.4189 57.0185 72.7955 57.0185 73.2291ZM65.5778 77.0127C65.1126 77.0127 64.698 76.932 64.3341 76.7706C63.9701 76.606 63.6821 76.3639 63.4701 76.0442C63.2612 75.7214 63.1567 75.3195 63.1567 74.8384C63.1567 74.4333 63.2311 74.0931 63.3799 73.8178C63.5286 73.5424 63.7312 73.3209 63.9875 73.1532C64.2439 72.9854 64.535 72.8588 64.861 72.7734C65.1902 72.6879 65.5351 72.6278 65.8959 72.593C66.32 72.5487 66.6618 72.5075 66.9213 72.4696C67.1808 72.4284 67.3692 72.3683 67.4862 72.2892C67.6033 72.21 67.6619 72.0929 67.6619 71.9379V71.9094C67.6619 71.6087 67.567 71.3761 67.3771 71.2115C67.1903 71.047 66.9245 70.9647 66.5795 70.9647C66.2156 70.9647 65.926 71.0454 65.7108 71.2068C65.4956 71.365 65.3531 71.5644 65.2835 71.8049L63.4131 71.653C63.508 71.2099 63.6948 70.827 63.9733 70.5042C64.2518 70.1782 64.611 69.9282 65.0509 69.7541C65.494 69.5769 66.0067 69.4883 66.589 69.4883C66.9941 69.4883 67.3818 69.5357 67.7521 69.6307C68.1255 69.7256 68.4563 69.8728 68.7443 70.0722C69.0354 70.2716 69.2649 70.5279 69.4326 70.8412C69.6004 71.1514 69.6842 71.5233 69.6842 71.9568V76.875H67.7663V75.8638H67.7094C67.5923 76.0917 67.4356 76.2927 67.2394 76.4667C67.0432 76.6376 66.8074 76.7722 66.532 76.8703C66.2567 76.9652 65.9386 77.0127 65.5778 77.0127ZM66.157 75.617C66.4545 75.617 66.7172 75.5584 66.9451 75.4413C67.1729 75.3211 67.3517 75.1597 67.4815 74.9571C67.6113 74.7546 67.6761 74.5251 67.6761 74.2688V73.495C67.6128 73.5361 67.5258 73.5741 67.415 73.6089C67.3074 73.6405 67.1856 73.6706 67.0495 73.6991C66.9134 73.7244 66.7773 73.7481 66.6412 73.7703C66.5051 73.7893 66.3817 73.8067 66.271 73.8225C66.0336 73.8573 65.8263 73.9127 65.6491 73.9887C65.4718 74.0646 65.3342 74.1675 65.236 74.2972C65.1379 74.4238 65.0889 74.5821 65.0889 74.772C65.0889 75.0473 65.1886 75.2578 65.388 75.4034C65.5905 75.5458 65.8469 75.617 66.157 75.617ZM73.2755 67.1526V76.875H71.2532V67.1526H73.2755Z" fill="#EC4A47"/>
<path d="M51.518 30.4676C51.518 30.1617 51.766 29.9137 52.072 29.9137H76.4461C76.752 29.9137 77 30.1617 77 30.4676V46.5324C77 48.0621 75.76 49.3022 74.2302 49.3022H52.072C51.766 49.3022 51.518 49.0542 51.518 48.7482V30.4676Z" fill="url(#paint2_linear_12_18)"/>
<path d="M0 2.76978C0 1.24007 1.24007 0 2.76978 0H47.3633C48.893 0 50.1331 1.24007 50.1331 2.76978V36.2842C50.1331 36.5901 49.8851 36.8381 49.5791 36.8381H2.76978C1.24007 36.8381 0 35.5981 0 34.0684V2.76978Z" fill="url(#paint3_linear_12_18)"/>
<circle cx="18.0036" cy="50.6871" r="9.69425" fill="#4793E8"/>
<circle cx="37.946" cy="50.6871" r="9.69425" fill="#4793E8"/>
<circle cx="62.8741" cy="50.6871" r="9.69425" fill="#EE6E41"/>
<defs>
<linearGradient id="paint0_linear_12_18" x1="65.7043" y1="3.46223" x2="-3.81301" y2="23.8578" gradientUnits="userSpaceOnUse">
<stop stop-color="#1D37D1"/>
<stop offset="0.201266" stop-color="#2C59D9"/>
<stop offset="0.537022" stop-color="#3873DF"/>
<stop offset="1" stop-color="#4692E7"/>
</linearGradient>
<linearGradient id="paint1_linear_12_18" x1="75.1514" y1="12.7458" x2="-8.12699" y2="68.0344" gradientUnits="userSpaceOnUse">
<stop stop-color="#1D37D1"/>
<stop offset="0.192054" stop-color="#3667E0"/>
<stop offset="0.516192" stop-color="#3370DD"/>
<stop offset="1" stop-color="#4692E7"/>
</linearGradient>
<linearGradient id="paint2_linear_12_18" x1="-18.0036" y1="11.0954" x2="70.8334" y2="59.2985" gradientUnits="userSpaceOnUse">
<stop stop-color="#EB3F48"/>
<stop offset="0.409605" stop-color="#EB4647"/>
<stop offset="0.564711" stop-color="#EC5046"/>
<stop offset="0.87237" stop-color="#EC5046"/>
</linearGradient>
<linearGradient id="paint3_linear_12_18" x1="0.576243" y1="1.63725" x2="62.5931" y2="51.7192" gradientUnits="userSpaceOnUse">
<stop stop-color="#EB3F48"/>
<stop offset="0.183785" stop-color="#EB4447"/>
<stop offset="0.516461" stop-color="#EC4B47"/>
<stop offset="1" stop-color="#EC5046"/>
</linearGradient>
</defs>
</svg>
